<?xml version="1.0" encoding="utf-8"?>
<!-- Generator: Adobe Illustrator 27.2.0, SVG Export Plug-In . SVG Version: 6.00 Build 0)  -->
<svg version="1.1" id="Layer_1" xmlns="http://www.w3.org/2000/svg" xmlns:xlink="http://www.w3.org/1999/xlink" x="0px" y="0px"
	 width="960px" height="960px" viewBox="0 0 960 960" style="enable-background:new 0 0 960 960;" xml:space="preserve">
<style type="text/css">
	.st0{fill:#FFFFFF;stroke:#CDCDCD;stroke-width:5;stroke-miterlimit:10;}
	.st1{fill:#F5A9B8;stroke:#A95365;stroke-width:5;stroke-linecap:round;stroke-linejoin:round;stroke-miterlimit:10;}
	.st2{fill:#5BCEFA;stroke:#1C86AE;stroke-width:5;stroke-linecap:round;stroke-linejoin:round;stroke-miterlimit:10;}
	.st3{fill:none;stroke:#1C86AE;stroke-width:5;stroke-linecap:round;stroke-linejoin:round;stroke-miterlimit:10;}
	.st4{fill:#FFFFFF;stroke:#CDCDCD;stroke-width:5;stroke-linecap:round;stroke-linejoin:round;stroke-miterlimit:10;}
	.st5{fill:#1C86AE;}
	.st6{fill:#FFFFFF;}
</style>
<g>
	<path class="st0" d="M85.9,5.6c24.5-4.3,78,13.3,154.2,80.1C353.4,185,402.2,277.5,466.7,320.3c83.8,9.5,88-16.3,166.3-16.3
		c45.3,0,81.7,11.7,103.2,29.4c19.7,16.3,11.9,25.1-13.7,31.9c-45.7,12.2-122.7,42-165.3,86.6c-49.5,51.7,1.7,108.5,17.3,140.9
		c20.4,42.2,41.8,37.6,83.7,42.7c26.7,3.3,23.3,17.1,8.5,21.2c-15.8,4.3-40.3,19.6,4.7,57.5c64.4,54.2,48.5,34.1,125.9,36.2
		c62.4,1.7,105.5,5.4,133.3,12.1c25.7,6.2,26.9,32.1-4.2,37.6c-49.1,8.6-65.7,15.9-131.8,24.6c-20,2.6-32.4,6.6-44.6,30.1
		c-12.7,24.5-26.8,51.8-33.1,75.6c-7.1,27.2-41,38.7-42.7-2.6c-2.5-60.4-14.8-59.6-11-107.7c-223.7-59.9-223.5-132.6-384.9-193.6
		c0,114.4-9.6,59.6,21.6,142.6c20.3,54.1-15.4,46.1-35.6,21.7c-18.7-22.7-85.7-76.6-97.5-239.7C110,470.5,10.2,368.2,10.2,196.4
		C10.2,64.5,47.6,12.4,85.9,5.6z"/>
	<path class="st1" d="M10.2,191.7c0.2-21.2,1.4-41.3,3.4-58.4l0,0c-2.6,31,7.5,60.6,21.2,74.3S43.6,248.8,60,274
		s17.3,53.1,43.4,79.2C56.8,337,12.2,238.1,10.2,191.7z"/>
	<path class="st2" d="M166.9,551.3c11.8,163,78.8,217,97.5,239.7c20.2,24.5,55.9,32.5,35.6-21.7c-31.2-83-21.6-28.2-21.6-142.6
		c0-18.5,15.7-11.4,13.3-25.8c46.5,14.4,81.3,75.4,144,114.8c51,36,106.5,72.2,227.6,104.6c-3.8,48.1,8.6,47.3,11,107.7
		c1.7,41.3,35.5,29.8,42.7,2.6c6.2-23.8,20.4-51.2,33.1-75.6c12.2-23.4,24.5-27.4,44.6-30.1c66.1-8.7,82.7-16.1,131.8-24.6
		c31.2-5.4,29.9-31.4,4.2-37.6c-27.7-6.7-70.9-10.4-133.3-12.1c-77.4-2.1-61.5,18-125.9-36.2c-45.1-37.9-20.5-53.2-4.7-57.5
		c14.8-4.1,18.2-18-8.5-21.2c-41.9-5.1-63.3-0.5-83.7-42.7c-15.6-32.4-66.7-89.1-17.3-140.9c42.7-44.6,119.6-74.4,165.3-86.6
		c25.6-6.8,33.4-15.6,13.7-31.9C714.7,315.7,678.3,304,633,304c-78.3,0-82.5,25.8-166.3,16.3C402.2,277.5,353.4,185,240.1,85.7
		C163.9,18.9,110.4,1.3,85.9,5.6C64.2,9.5,42.8,27.8,28.3,67.1c-7.9,26.5,6.5,66,36.7,114.8s32.1,108.6,68.1,161.2
		s70.7,126,70.7,136.9S166.9,505.1,166.9,551.3"/>
	<path class="st3" d="M28.3,67.1c-7.9,26.5,6.5,66,36.7,114.8s32.1,108.6,68.1,161.2s70.7,126,70.7,136.9s-36.8,25.1-36.8,71.3"/>
	<path class="st3" d="M278.3,626.7c0-18.5,15.7-11.4,13.3-25.8c46.5,14.4,81.3,75.4,144,114.8"/>
	<path class="st1" d="M13.6,133.3c-2.6,31,7.5,60.6,21.2,74.3S43.6,248.8,60,274s17.3,53.1,43.4,79.2
		C56.8,337,18.1,268.7,10.2,210.4C10,184.1,11.9,151.1,13.6,133.3"/>
	<path class="st4" d="M10.2,196.4c0-23.5,1.2-44.5,3.4-63.1l0,0c-2.6,31,7.5,60.6,21.2,74.3S43.6,248.8,60,274
		c10.2,15.8,14.4,32.6,22.5,49.3l0,0l-12.6-2.5l4.1-17.8l-17.2-4l6.9-18.8l-24.4-2.7l11.1-24.6l-19,1.2l13-26.4l-22,4.1l9.5-27.3
		l-16.6,9.2l6.2-27.1L10.2,196.4z"/>
	<path class="st3" d="M144.8,361c39.2,3.5,102.2-22.2,102.2-22.2"/>
	<path class="st3" d="M160.4,387.1c39.1-3.5,86.6-17.6,86.6-17.6"/>
	<path class="st3" d="M172.9,409.7c36.1-2.2,83-18.1,83-18.1"/>
	<path class="st3" d="M184.8,433.2c38.9,0,72.8-12.2,72.8-12.2"/>
	<path class="st3" d="M195.9,457.1c40.5-3.7,67-9.3,67-9.3"/>
	<path class="st3" d="M203.7,480c48.2,2.3,68-3.4,68-3.4"/>
	<path class="st3" d="M514.5,380.8c-19-24.7-50.8-65.2-34.5-29.3c28.2,62.4,14.1,92.7,34.5,105.6"/>
	<path class="st3" d="M498,645.4c20.1-7.8,45.1-65.6,46.7-82.7c2.3-25.5,5.1,2.4,6.4,19.8c1.4,18.6-7.7,14.7-36.5,64"/>
	<path class="st3" d="M560.3,682.8c11.6-27.1,16.6-47.6,14.8-75.8c6.7,11.3,7,41.6,3.5,57.8"/>
	<path class="st3" d="M638.9,672.9c-12-22.6-15.2-26.1,0-14.7"/>
	<path class="st3" d="M732.3,766.7c-14.4,26.8-21.8,36.7-38.8,43.3c20.4-6.3,41.2-6.7,41.2-36.3"/>
	<path class="st3" d="M711.5,777.6c-15.9,10.6-39.8,28.2-62.4,32.4c25.7,0,49.3-8.8,62.4-24.7"/>
	<path class="st3" d="M251.6,533.4c-21.2-30.3-34.8-28.5-47.7-29.3c10.1,7.4,25.5,7.4,33.8,36.4"/>
	<path class="st3" d="M291.7,600.9c-2-14.1-6.1-21.6-10.5-26"/>
	<path class="st5" d="M110.7,224.1c-2.6,2.6-0.4,10.6,4.3,21.7c4.8,11.4,6.7,21.5,12.2,21.5c5.5,0,9.8-18.1,4.6-29.7
		S113.2,221.7,110.7,224.1z"/>
	<circle class="st6" cx="127" cy="249.9" r="4.4"/>
</g>
</svg>
